<svg data-name="Layer 1" xmlns="http://www.w3.org/2000/svg" viewBox="0 0 46.95 29.1">
<path fill="#007cbb" d="M41.93 13.5a.89.89 0 0 1-.6-1v-1a11.54 11.54 0 0 0-20.6-7.1.93.93 0 0 1-1.2.2A10.32 10.32 0 0 0 14 3.1C8 3.1 2.73 8 3.23 13.9a1 1 0 0 1-.5 1A7.35 7.35 0 0 0 0 21.6a8.3 8.3 0 0 0 8.4 7.5h30.1a8.26 8.26 0 0 0 8.4-7.7 7.87 7.87 0 0 0-4.97-7.9zm-12.2 3.4h-2.9a.43.43 0 0 0-.4.4V24a.43.43 0 0 1-.4.4h-5.3a.43.43 0 0 1-.4-.4v-6.7a.43.43 0 0 0-.4-.4H17a.33.33 0 0 1-.2-.6l6.2-6.2a.45.45 0 0 1 .5 0l6.2 6.2c.53.2.3.6.03.6z"/>
</svg>